<svg xmlns="http://www.w3.org/2000/svg" width="19.425" height="19.425" viewBox="0 0 19.425 19.425"><g transform="translate(-1245 -780.417)"><path d="M28.479,16.586a4.361,4.361,0,0,1,4.361,4.361v7.532a4.361,4.361,0,0,1-4.361,4.361H20.947a4.361,4.361,0,0,1-4.361-4.361V20.947a4.361,4.361,0,0,1,4.361-4.361h7.532m0-1.586H20.947A5.964,5.964,0,0,0,15,20.947v7.532a5.964,5.964,0,0,0,5.947,5.947h7.532a5.964,5.964,0,0,0,5.947-5.947V20.947A5.964,5.964,0,0,0,28.479,15Z" transform="translate(1230 765.417)" fill="#fff"/><path d="M85.546,32a1.136,1.136,0,1,0,1.136,1.136A1.136,1.136,0,0,0,85.546,32Z" transform="translate(1174.348 751.549)" fill="#fff"/><path d="M43.72,40.056a3.5,3.5,0,1,1-3.5,3.5,3.5,3.5,0,0,1,3.5-3.5m0-1.586a5.09,5.09,0,1,0,3.605,1.487A5.09,5.09,0,0,0,43.72,38.47Z" transform="translate(1211.046 746.646)" fill="#fff"/></g></svg>