<svg xmlns="http://www.w3.org/2000/svg" width="18.799" height="13.019" viewBox="0 0 18.799 13.019"><g transform="translate(13.021 0.925)"><path d="M357.827,101.721l-5.616,5.579,5.616,5.579a1.61,1.61,0,0,0,.163-.7v-9.764A1.61,1.61,0,0,0,357.827,101.721Z" transform="translate(-352.211 -101.721)" fill="#fff"/></g><g transform="translate(1)"><path d="M41.68,76H26.418a1.609,1.609,0,0,0-.7.163L32.9,83.3a1.629,1.629,0,0,0,2.3,0l7.177-7.141A1.609,1.609,0,0,0,41.68,76Z" transform="translate(-25.721 -76)" fill="#fff"/></g><g transform="translate(0 0.925)"><path d="M.163,101.721a1.609,1.609,0,0,0-.163.7v9.764a1.608,1.608,0,0,0,.163.7L5.779,107.3Z" transform="translate(0 -101.721)" fill="#fff"/></g><g transform="translate(1 7.276)"><path d="M36.761,277.211l-.795.795a2.715,2.715,0,0,1-3.835,0l-.795-.795-5.616,5.579a1.608,1.608,0,0,0,.7.163H41.68a1.608,1.608,0,0,0,.7-.163Z" transform="translate(-25.721 -277.211)" fill="#fff"/></g></svg>