<svg xmlns="http://www.w3.org/2000/svg" width="19.425" height="13.598" viewBox="0 0 19.425 13.598"><path d="M19.02,78.923A2.433,2.433,0,0,0,17.3,77.206C15.787,76.8,9.713,76.8,9.713,76.8s-6.074,0-7.59.406A2.433,2.433,0,0,0,.406,78.923a27.135,27.135,0,0,0,0,9.351,2.433,2.433,0,0,0,1.717,1.718c1.515.406,7.59.406,7.59.406s6.074,0,7.589-.406a2.433,2.433,0,0,0,1.717-1.718,25.284,25.284,0,0,0,.406-4.675A25.286,25.286,0,0,0,19.02,78.923ZM7.77,86.513V80.685L12.817,83.6Z" transform="translate(0 -76.8)" fill="#fff"/></svg>